<?xml version="1.0"?>
<svg version="1.1" xmlns="http://www.w3.org/2000/svg" width="128" height="70" style=""><path fill="#5a5a5a" d="M17.4,34.676l4.524,0l0-0.912l-4.524,0q-0.888,0-1.488,0.696q-0.612,0.708-0.612,1.716q0,0.912,0.612,1.584q0.6,0.684,1.488,0.684l1.2,0l1.224,0q0.54,0,0.96,0.456q0.396,0.48,0.396,1.044q0,0.672-0.39,1.092t-0.966,0.42l-4.524,0l0,0.744l4.524,0q0.9,0,1.5-0.624t0.6-1.632q0-0.912-0.6-1.584q-0.612-0.672-1.5-0.672l-1.224,0l-1.2,0q-0.552,0-0.948-0.48q-0.408-0.444-0.408-1.032q0-0.672,0.39-1.086t0.966-0.414z M36.13008,33.8l-0.756,0l0,5.1q0,1.008-0.768,1.776t-1.776,0.768t-1.776-0.768t-0.768-1.776l0-5.1l-0.756,0l0,5.1q0,1.008-0.768,1.776q-0.792,0.768-1.788,0.768q-1.008,0-1.776-0.768t-0.768-1.776l0-5.1l-0.756,0l0,5.1q0,1.332,0.984,2.316t2.316,0.984q0.912,0,1.716-0.504q0.792-0.492,1.14-1.284q0.432,0.768,1.272,1.284q0.816,0.504,1.728,0.504q1.344,0,2.328-0.984q0.972-0.972,0.972-2.316l0-5.1z M41.13216,33.752q-1.344,0-2.256,0.972q-0.9,0.96-0.9,2.34l0,5.136l0.756,0l0-3.768l4.824,0l0,3.768l0.756,0l0-5.136q0-1.38-0.9-2.34q-0.936-0.972-2.28-0.972z M43.55616,37.688l-4.824,0l0-0.624q0-1.032,0.696-1.788q0.708-0.768,1.704-0.768t1.728,0.768q0.696,0.756,0.696,1.788l0,0.624z M46.13424,42.2l0.744,0l0-5.088q0-1.008,0.768-1.8q0.768-0.768,1.776-0.768t1.8,0.768q0.768,0.792,0.768,1.8l0,5.088l0.744,0l0-5.088q0-1.368-0.972-2.34t-2.34-0.972q-1.344,0-2.316,0.972t-0.972,2.34l0,5.088z M60.5304,34.676l4.524,0l0-0.912l-4.524,0q-0.888,0-1.488,0.696q-0.612,0.708-0.612,1.716q0,0.912,0.612,1.584q0.6,0.684,1.488,0.684l1.2,0l1.224,0q0.54,0,0.96,0.456q0.396,0.48,0.396,1.044q0,0.672-0.39,1.092t-0.966,0.42l-4.524,0l0,0.744l4.524,0q0.9,0,1.5-0.624t0.6-1.632q0-0.912-0.6-1.584q-0.612-0.672-1.5-0.672l-1.224,0l-1.2,0q-0.552,0-0.948-0.48q-0.408-0.444-0.408-1.032q0-0.672,0.39-1.086t0.966-0.414z M72.93648,33.8l-6.504,0l0,0.732l2.952,0l0,7.692l0.744,0l0-7.692l2.808,0l0-0.732z M78.08256,37.988l0.9,0q0.912,0,1.512-0.6t0.6-1.512q0-0.804-0.6-1.44q-0.636-0.66-1.512-0.66l-3.756,0l-0.744,0l0,8.424l0.744,0l0-4.212l1.956,0l2.556,4.212l0.9,0z M75.22656,37.244l0-2.712l3.756,0q0.552,0,0.972,0.396q0.396,0.396,0.396,0.948q0,0.576-0.396,0.972q-0.42,0.396-0.972,0.396l-3.756,0z M83.55264,39.896q0-0.576,0.408-1.044q0.408-0.492,0.984-0.492l0.156,0l2.244,0l0-0.744l-2.244,0l-0.156,0q-0.612-0.12-1.002-0.528t-0.39-0.972q0-0.708,0.414-1.122t1.134-0.414l4.08,0l0-0.756l-4.08,0q-0.924,0-1.608,0.684q-0.684,0.66-0.684,1.608q0,0.6,0.228,1.092t0.672,0.708q-0.444,0.324-0.672,0.852t-0.228,1.128q0,0.936,0.684,1.596q0.696,0.696,1.608,0.696l4.08,0l0-0.792l-4.08,0q-0.72,0-1.134-0.408t-0.414-1.092z M93.84672,33.752q-1.344,0-2.256,0.972q-0.9,0.96-0.9,2.34l0,5.136l0.756,0l0-3.768l4.824,0l0,3.768l0.756,0l0-5.136q0-1.38-0.9-2.34q-0.936-0.972-2.28-0.972z M96.27072,37.688l-4.824,0l0-0.624q0-1.032,0.696-1.788q0.708-0.768,1.704-0.768t1.728,0.768q0.696,0.756,0.696,1.788l0,0.624z M98.8728,42.176l0.744,0l0-5.076q0-1.008,0.768-1.776t1.776-0.768q0.984,0,1.776,0.768q0.756,0.756,0.756,1.776l0,5.076l0.768,0l0-5.076q0-1.032,0.768-1.776q0.768-0.768,1.764-0.768q1.008,0,1.776,0.768t0.768,1.776l0,5.076l0.744,0l0-5.076q0-1.368-0.96-2.328t-2.328-0.96q-0.9,0-1.692,0.492q-0.804,0.504-1.152,1.284q-0.468-0.804-1.26-1.284q-0.828-0.492-1.728-0.492q-1.356,0-2.316,0.96q-0.972,0.972-0.972,2.328l0,5.076z"/><path fill="#" d=""/></svg>
